<svg width="165" height="30" viewBox="0 0 165 30" fill="none" xmlns="http://www.w3.org/2000/svg">
<path d="M107.312 5.38934C107.952 7.99474 107.735 9.36996 107.62 9.70875C107.616 9.72093 107.613 9.73295 107.613 9.7458C107.601 10.4475 110.558 10.8532 110.217 10.8532C107.809 10.8532 107.522 11.1541 107.497 11.2642C107.491 11.2901 107.499 11.3179 107.497 11.3444L107.27 15.4359C107.34 18.4869 106.813 19.9913 106.411 20.894C106.366 20.9944 106.439 21.108 106.549 21.108H122.14C122.243 21.108 122.314 21.0037 122.281 20.9065C117.629 7.16529 110.248 5.04134 107.441 5.20533C107.349 5.21069 107.29 5.29997 107.312 5.38934Z" stroke="white" stroke-width="0.454603"/>
<path d="M120.282 20.0938C120.644 19.5612 120.095 18.1348 119.761 17.4577C119.758 17.4499 119.746 17.4532 119.746 17.4619V17.4619C119.746 17.4635 119.747 17.465 119.747 17.4664C120.168 18.1064 120.58 19.7336 120.244 20.0938C119.915 20.4459 118.587 20.3612 117.918 20.287C117.903 20.2853 117.894 20.3044 117.905 20.3155V20.3155C117.908 20.3179 117.91 20.3194 117.914 20.32C118.022 20.3365 119.925 20.6194 120.282 20.0938ZM116.627 20.2065H112.876C112.866 20.2065 112.857 20.2149 112.857 20.2253V20.2253C112.857 20.2357 112.866 20.2441 112.876 20.2441H116.627C116.638 20.2441 116.646 20.2357 116.646 20.2253V20.2253C116.646 20.2149 116.638 20.2065 116.627 20.2065ZM119.477 16.6354C118.142 13.3808 116.087 11.095 114.407 9.48123C114.396 9.4712 114.38 9.47145 114.369 9.48159V9.48159C114.359 9.49218 114.359 9.50942 114.369 9.5199C116.039 11.1233 118.115 13.4259 119.451 16.646C119.456 16.6604 119.478 16.6564 119.478 16.6408V16.6408C119.478 16.6389 119.478 16.6371 119.477 16.6354Z" stroke="white" stroke-width="0.454603"/>
<path d="M12.4134 20.8925C10.9366 20.8925 9.7465 20.7352 8.84314 20.4205C7.93978 20.1008 7.25211 19.6643 6.78013 19.1111C6.30815 18.5529 5.99096 17.9109 5.82856 17.1852H10.693C11.0533 17.7028 11.6268 17.9616 12.4134 17.9616C13.2001 17.9616 13.7735 17.7028 14.1339 17.1852C14.1643 17.1344 14.1796 17.0887 14.1796 17.0481C14.1796 16.9111 13.9969 16.8096 13.6314 16.7436C13.2711 16.6726 12.7306 16.6193 12.01 16.5838C11.1015 16.5432 10.1474 16.4467 9.14764 16.2945C6.9197 15.9494 5.80572 15.0536 5.80572 13.6073C5.80572 13.4854 5.81333 13.356 5.82856 13.219C5.99096 12.4933 6.30815 11.8538 6.78013 11.3006C7.25211 10.7424 7.93978 10.3059 8.84314 9.99128C9.7465 9.67155 10.9366 9.51169 12.4134 9.51169C13.8903 9.51169 15.0804 9.67155 15.9837 9.99128C16.8871 10.3059 17.5748 10.7424 18.0467 11.3006C18.5187 11.8538 18.8359 12.4933 18.9983 13.219H14.1339C13.7735 12.7014 13.2001 12.4425 12.4134 12.4425C11.6268 12.4425 11.0533 12.7014 10.693 13.219C10.6676 13.2596 10.6549 13.2977 10.6549 13.3332C10.6549 13.455 10.8275 13.5464 11.1726 13.6073C11.5228 13.6631 12.0353 13.7113 12.7103 13.7519C13.3904 13.7925 14.1136 13.8585 14.8799 13.9498C15.6462 14.0412 16.3618 14.201 17.0267 14.4294C17.6966 14.6527 18.2193 14.9851 18.5948 15.4267C18.8892 15.7667 19.0364 16.1981 19.0364 16.7208C19.0364 16.868 19.0237 17.0228 18.9983 17.1852C18.8359 17.9109 18.5187 18.5529 18.0467 19.1111C17.5748 19.6643 16.8871 20.1008 15.9837 20.4205C15.0804 20.7352 13.8903 20.8925 12.4134 20.8925ZM35.784 20.6565H31.2013V16.2488H25.4462V20.6565H20.8634V9.73245H25.4462V14.1477H31.2013V9.73245H35.784V20.6565ZM42.8028 20.6565H38.2201V9.73245H42.8028V20.6565ZM49.8216 20.6565H45.2389V9.73245H57.792V12.4349H49.8216V14.1477H56.5588V16.2488H49.8216V20.6565ZM67.7264 20.6565H63.1436V12.4349H58.8654V9.73245H72.0047V12.4349H67.7264V20.6565ZM79.6781 20.8925C78.2013 20.8925 77.0112 20.7352 76.1078 20.4205C75.2045 20.1008 74.5168 19.6643 74.0448 19.1111C73.5729 18.5529 73.2557 17.9109 73.0933 17.1852H77.9577C78.318 17.7028 78.8915 17.9616 79.6781 17.9616C80.4648 17.9616 81.0383 17.7028 81.3986 17.1852C81.429 17.1344 81.4443 17.0887 81.4443 17.0481C81.4443 16.9111 81.2616 16.8096 80.8962 16.7436C80.5358 16.6726 79.9953 16.6193 79.2747 16.5838C78.3662 16.5432 77.4121 16.4467 76.4123 16.2945C74.1844 15.9494 73.0704 15.0536 73.0704 13.6073C73.0704 13.4854 73.078 13.356 73.0933 13.219C73.2557 12.4933 73.5729 11.8538 74.0448 11.3006C74.5168 10.7424 75.2045 10.3059 76.1078 9.99128C77.0112 9.67155 78.2013 9.51169 79.6781 9.51169C81.155 9.51169 82.3451 9.67155 83.2484 9.99128C84.1518 10.3059 84.8395 10.7424 85.3114 11.3006C85.7834 11.8538 86.1006 12.4933 86.263 13.219H81.3986C81.0383 12.7014 80.4648 12.4425 79.6781 12.4425C78.8915 12.4425 78.318 12.7014 77.9577 13.219C77.9323 13.2596 77.9196 13.2977 77.9196 13.3332C77.9196 13.455 78.0922 13.5464 78.4373 13.6073C78.7875 13.6631 79.3 13.7113 79.975 13.7519C80.6551 13.7925 81.3783 13.8585 82.1446 13.9498C82.9109 14.0412 83.6265 14.201 84.2914 14.4294C84.9613 14.6527 85.484 14.9851 85.8595 15.4267C86.1539 15.7667 86.3011 16.1981 86.3011 16.7208C86.3011 16.868 86.2884 17.0228 86.263 17.1852C86.1006 17.9109 85.7834 18.5529 85.3114 19.1111C84.8395 19.6643 84.1518 20.1008 83.2484 20.4205C82.3451 20.7352 81.155 20.8925 79.6781 20.8925ZM103.049 20.6565H98.466V16.2488H92.7109V20.6565H88.1281V9.73245H92.7109V14.1477H98.466V9.73245H103.049V20.6565ZM139.734 20.6565H135.402C135.204 20.3824 135.065 20.0323 134.983 19.606C134.912 19.2761 134.806 18.9538 134.664 18.6392C134.522 18.3194 134.276 18.0555 133.925 17.8475C133.58 17.6343 133.065 17.5201 132.38 17.5049H129.403V20.6565H124.821V9.73245H132.273C134.055 9.73245 135.491 9.86694 136.582 10.1359C137.678 10.3998 138.478 10.8185 138.98 11.392C139.483 11.9604 139.734 12.7039 139.734 13.6225C139.734 14.3888 139.559 15.0333 139.208 15.5561C138.863 16.0788 138.315 16.4924 137.564 16.7969C138.29 17.0963 138.759 17.4567 138.972 17.8779C139.191 18.2941 139.325 18.7534 139.376 19.2558C139.427 19.7024 139.546 20.1693 139.734 20.6565ZM129.403 14.81L132.022 14.8024C132.753 14.8024 133.329 14.7694 133.75 14.7035C134.171 14.6375 134.481 14.5487 134.679 14.437C134.882 14.3203 135.011 14.1934 135.067 14.0564C135.123 13.9143 135.151 13.7697 135.151 13.6225C135.151 13.4753 135.123 13.3307 135.067 13.1886C135.011 13.0465 134.882 12.9196 134.679 12.8079C134.481 12.6912 134.171 12.5999 133.75 12.5339C133.329 12.4679 132.753 12.4349 132.022 12.4349H129.403V14.81ZM159.504 20.6565H153.551L148.861 17.0025L146.151 18.8523V20.6565H141.568V9.73245H146.151V14.7872L153.505 9.73245H159.504L151.678 15.0765L159.504 20.6565Z" fill="white"/>
</svg>
