<svg width="165" height="30" viewBox="0 0 165 30" fill="none" xmlns="http://www.w3.org/2000/svg">
<path d="M107.312 5.38928C107.952 7.99468 107.735 9.3699 107.62 9.70869C107.616 9.72087 107.613 9.73289 107.613 9.74574C107.601 10.4475 110.558 10.8531 110.217 10.8531C107.809 10.8531 107.522 11.1541 107.497 11.2642C107.491 11.2901 107.499 11.3178 107.497 11.3443L107.27 15.4358C107.34 18.4869 106.813 19.9912 106.411 20.894C106.366 20.9943 106.439 21.1079 106.549 21.1079H122.14C122.243 21.1079 122.314 21.0036 122.281 20.9065C117.629 7.16523 110.248 5.04127 107.441 5.20527C107.349 5.21063 107.291 5.29991 107.312 5.38928Z" stroke="black" stroke-width="0.454603"/>
<path d="M120.282 20.0937C120.644 19.561 120.095 18.1347 119.761 17.4576C119.758 17.4498 119.746 17.453 119.746 17.4618V17.4618C119.746 17.4634 119.747 17.4649 119.747 17.4663C120.168 18.1063 120.58 19.7335 120.244 20.0937C119.915 20.4457 118.587 20.361 117.918 20.2869C117.903 20.2852 117.894 20.3043 117.905 20.3154V20.3154C117.908 20.3178 117.91 20.3193 117.914 20.3198C118.022 20.3364 119.925 20.6192 120.282 20.0937ZM116.627 20.2064H112.876C112.866 20.2064 112.857 20.2148 112.857 20.2252V20.2252C112.857 20.2356 112.866 20.244 112.876 20.244H116.627C116.638 20.244 116.646 20.2356 116.646 20.2252V20.2252C116.646 20.2148 116.638 20.2064 116.627 20.2064ZM119.477 16.6353C118.143 13.3807 116.087 11.0949 114.407 9.48111C114.396 9.47107 114.38 9.47132 114.37 9.48147V9.48147C114.359 9.49206 114.359 9.5093 114.37 9.51977C116.039 11.1231 118.115 13.4258 119.451 16.6459C119.457 16.6603 119.478 16.6563 119.478 16.6407V16.6407C119.478 16.6388 119.478 16.637 119.477 16.6353Z" stroke="black" stroke-width="0.454603"/>
<path d="M12.4135 20.8924C10.9367 20.8924 9.74656 20.735 8.8432 20.4204C7.93984 20.1007 7.25217 19.6642 6.78019 19.111C6.30821 18.5528 5.99102 17.9108 5.82862 17.185H10.6931C11.0534 17.7027 11.6269 17.9615 12.4135 17.9615C13.2001 17.9615 13.7736 17.7027 14.1339 17.185C14.1644 17.1343 14.1796 17.0886 14.1796 17.048C14.1796 16.911 13.9969 16.8095 13.6315 16.7435C13.2712 16.6725 12.7307 16.6192 12.01 16.5836C11.1016 16.543 10.1475 16.4466 9.1477 16.2944C6.91976 15.9493 5.80578 15.0535 5.80578 13.6071C5.80578 13.4853 5.8134 13.3559 5.82862 13.2189C5.99102 12.4932 6.30821 11.8537 6.78019 11.3005C7.25217 10.7423 7.93984 10.3058 8.8432 9.99116C9.74656 9.67143 10.9367 9.51156 12.4135 9.51156C13.8903 9.51156 15.0804 9.67143 15.9838 9.99116C16.8872 10.3058 17.5748 10.7423 18.0468 11.3005C18.5188 11.8537 18.836 12.4932 18.9984 13.2189H14.1339C13.7736 12.7012 13.2001 12.4424 12.4135 12.4424C11.6269 12.4424 11.0534 12.7012 10.6931 13.2189C10.6677 13.2595 10.655 13.2976 10.655 13.3331C10.655 13.4549 10.8275 13.5462 11.1726 13.6071C11.5228 13.663 12.0354 13.7112 12.7104 13.7518C13.3904 13.7924 14.1136 13.8583 14.88 13.9497C15.6463 14.041 16.3619 14.2009 17.0267 14.4293C17.6966 14.6526 18.2194 14.985 18.5949 15.4265C18.8893 15.7666 19.0364 16.1979 19.0364 16.7207C19.0364 16.8678 19.0237 17.0226 18.9984 17.185C18.836 17.9108 18.5188 18.5528 18.0468 19.111C17.5748 19.6642 16.8872 20.1007 15.9838 20.4204C15.0804 20.735 13.8903 20.8924 12.4135 20.8924ZM35.7841 20.6564H31.2013V16.2487H25.4462V20.6564H20.8635V9.73233H25.4462V14.1476H31.2013V9.73233H35.7841V20.6564ZM42.8029 20.6564H38.2201V9.73233H42.8029V20.6564ZM49.8217 20.6564H45.2389V9.73233H57.7921V12.4348H49.8217V14.1476H56.5588V16.2487H49.8217V20.6564ZM67.7265 20.6564H63.1437V12.4348H58.8654V9.73233H72.0047V12.4348H67.7265V20.6564ZM79.6782 20.8924C78.2014 20.8924 77.0113 20.735 76.1079 20.4204C75.2045 20.1007 74.5169 19.6642 74.0449 19.111C73.5729 18.5528 73.2557 17.9108 73.0933 17.185H77.9578C78.3181 17.7027 78.8916 17.9615 79.6782 17.9615C80.4648 17.9615 81.0383 17.7027 81.3986 17.185C81.4291 17.1343 81.4443 17.0886 81.4443 17.048C81.4443 16.911 81.2616 16.8095 80.8962 16.7435C80.5359 16.6725 79.9954 16.6192 79.2747 16.5836C78.3663 16.543 77.4122 16.4466 76.4124 16.2944C74.1845 15.9493 73.0705 15.0535 73.0705 13.6071C73.0705 13.4853 73.0781 13.3559 73.0933 13.2189C73.2557 12.4932 73.5729 11.8537 74.0449 11.3005C74.5169 10.7423 75.2045 10.3058 76.1079 9.99116C77.0113 9.67143 78.2014 9.51156 79.6782 9.51156C81.155 9.51156 82.3451 9.67143 83.2485 9.99116C84.1519 10.3058 84.8395 10.7423 85.3115 11.3005C85.7835 11.8537 86.1007 12.4932 86.2631 13.2189H81.3986C81.0383 12.7012 80.4648 12.4424 79.6782 12.4424C78.8916 12.4424 78.3181 12.7012 77.9578 13.2189C77.9324 13.2595 77.9197 13.2976 77.9197 13.3331C77.9197 13.4549 78.0922 13.5462 78.4373 13.6071C78.7875 13.663 79.3001 13.7112 79.9751 13.7518C80.6551 13.7924 81.3783 13.8583 82.1447 13.9497C82.911 14.041 83.6266 14.2009 84.2914 14.4293C84.9613 14.6526 85.4841 14.985 85.8596 15.4265C86.154 15.7666 86.3011 16.1979 86.3011 16.7207C86.3011 16.8678 86.2885 17.0226 86.2631 17.185C86.1007 17.9108 85.7835 18.5528 85.3115 19.111C84.8395 19.6642 84.1519 20.1007 83.2485 20.4204C82.3451 20.735 81.155 20.8924 79.6782 20.8924ZM103.049 20.6564H98.466V16.2487H92.7109V20.6564H88.1282V9.73233H92.7109V14.1476H98.466V9.73233H103.049V20.6564ZM139.734 20.6564H135.402C135.204 20.3823 135.065 20.0321 134.984 19.6058C134.912 19.276 134.806 18.9537 134.664 18.639C134.522 18.3193 134.276 18.0554 133.925 17.8473C133.58 17.6342 133.065 17.52 132.38 17.5048H129.404V20.6564H124.821V9.73233H132.273C134.055 9.73233 135.491 9.86682 136.582 10.1358C137.678 10.3997 138.478 10.8184 138.98 11.3919C139.483 11.9603 139.734 12.7038 139.734 13.6224C139.734 14.3887 139.559 15.0332 139.209 15.5559C138.863 16.0787 138.315 16.4923 137.564 16.7968C138.29 17.0962 138.759 17.4566 138.973 17.8778C139.191 18.2939 139.325 18.7532 139.376 19.2557C139.427 19.7023 139.546 20.1692 139.734 20.6564ZM129.404 14.8099L132.022 14.8023C132.753 14.8023 133.329 14.7693 133.75 14.7033C134.172 14.6374 134.481 14.5486 134.679 14.4369C134.882 14.3202 135.011 14.1933 135.067 14.0563C135.123 13.9142 135.151 13.7695 135.151 13.6224C135.151 13.4752 135.123 13.3305 135.067 13.1884C135.011 13.0463 134.882 12.9195 134.679 12.8078C134.481 12.6911 134.172 12.5997 133.75 12.5338C133.329 12.4678 132.753 12.4348 132.022 12.4348H129.404V14.8099ZM159.504 20.6564H153.551L148.861 17.0023L146.151 18.8522V20.6564H141.568V9.73233H146.151V14.7871L153.505 9.73233H159.504L151.678 15.0764L159.504 20.6564Z" fill="black"/>
</svg>
